<?xml version="1.0" ?><svg enable-background="new 0 0 183.8359 179.8984" id="linkedin" version="1.1" viewBox="0 0 183.8359 179.8984" xml:space="preserve" xmlns="http://www.w3.org/2000/svg" xmlns:xlink="http://www.w3.org/1999/xlink"><g><path d="M21.5664,0C9.0703,0,0,8.6172,0,20.4883c0,11.8633,8.8906,20.4746,21.1367,20.4746   c6.3516,0,11.8242-2.0586,15.8281-5.9551c3.8398-3.7383,5.957-8.8945,5.9531-14.6133C42.6367,8.3867,33.8555,0,21.5664,0z" fill="#535353"/><path d="M31.3867,29.2734c-2.4805,2.4141-6.0273,3.6895-10.25,3.6895C13.4023,32.9629,8,27.834,8,20.4883   C8,13.0195,13.4531,8,21.5664,8C29.5,8,34.7383,12.9395,34.918,20.4902C34.918,23.9375,33.6641,27.0566,31.3867,29.2734z" fill="#D8D8D8"/><rect fill="#535353" height="132.1777" width="35.9531" x="3.8359" y="47.7207"/><rect fill="#D8D8D8" height="116.1777" width="19.9531" x="11.8359" y="55.7207"/><path d="M134.5938,47.7207c-16.6719,0-26.8789,5.7539-32.793,11.166l-1.125-11.166H60v132.1777h39.8359v-69.4707   c0-2.9922,1.2109-9.2051,1.9727-10.8457c4.8125-10.3652,11.3047-10.3652,21.1367-10.3652   c11.3242,0,20.8906,10.6191,20.8906,23.1875v67.4941h40v-74.6816C183.8359,65.7129,158.3086,47.7207,134.5938,47.7207z" fill="#535353"/><path d="M175.8359,171.8984h-24v-59.4941c0-16.9062-13.2305-31.1875-28.8906-31.1875   c-10.0469,0-21.4336,0-28.3945,14.998c-1.4375,3.0996-2.7148,10.5293-2.7148,14.2129v61.4707H68V55.7207h25.4414l1.6328,16.1777   h6.5547l1.1719-1.8906c2.668-4.2949,11.1055-14.2871,31.793-14.2871c19.8633,0,41.2422,15.4883,41.2422,49.4961V171.8984z" fill="#D8D8D8"/></g></svg>